M48
; DRILL file {KiCad (5.1.4-0-10_14)} date 2019 November 29, Friday 21:53:28
; FORMAT={-:-/ absolute / inch / decimal}
; #@! TF.CreationDate,2019-11-29T21:53:28+03:00
; #@! TF.GenerationSoftware,Kicad,Pcbnew,(5.1.4-0-10_14)
; #@! TF.FileFunction,Plated,1,2,PTH
FMAT,2
INCH
T1C0.0157
T2C0.0354
T3C0.0394
%
G90
G05
T1
X5.252Y-2.7395
X5.252Y-3.482
X5.2525Y-2.6395
X5.2525Y-2.839
X5.2525Y-2.9385
X5.2525Y-3.038
X5.2525Y-3.381
X5.2525Y-3.582
X5.2535Y-3.1795
X5.2535Y-3.28
X5.628Y-2.64
X5.628Y-2.7395
X5.6285Y-3.038
X5.629Y-2.8385
X5.6295Y-2.9385
X5.6295Y-3.2805
X5.6295Y-3.381
X5.6295Y-3.4815
X5.63Y-3.1795
X5.63Y-3.582
T2
X4.804Y-3.265
X4.804Y-3.365
X4.804Y-3.465
X4.804Y-3.565
X4.904Y-3.315
X4.904Y-3.415
X4.904Y-3.515
X4.904Y-3.615
X4.8035Y-2.6263
X4.8035Y-2.7263
X4.8035Y-2.8263
X4.8035Y-2.9263
X4.9035Y-2.6763
X4.9035Y-2.7763
X4.9035Y-2.8763
X4.9035Y-2.9763
T3
X5.889Y-2.9215
X5.889Y-3.0215
X5.889Y-3.1215
X5.889Y-3.2215
X5.889Y-3.3215
T0
M30
