G04 #@! TF.GenerationSoftware,KiCad,Pcbnew,(5.1.4-0-10_14)*
G04 #@! TF.CreationDate,2019-11-29T21:54:42+03:00*
G04 #@! TF.ProjectId,VHClick-rev1,5648436c-6963-46b2-9d72-6576312e6b69,rev?*
G04 #@! TF.SameCoordinates,Original*
G04 #@! TF.FileFunction,Copper,L1,Top*
G04 #@! TF.FilePolarity,Positive*
%FSLAX46Y46*%
G04 Gerber Fmt 4.6, Leading zero omitted, Abs format (unit mm)*
G04 Created by KiCad (PCBNEW (5.1.4-0-10_14)) date 2019-11-29 21:54:42*
%MOMM*%
%LPD*%
G04 APERTURE LIST*
%ADD10C,1.500000*%
%ADD11R,1.500000X1.500000*%
%ADD12C,3.650000*%
%ADD13R,3.150000X1.000000*%
%ADD14O,1.700000X1.700000*%
%ADD15R,1.700000X1.700000*%
%ADD16C,0.800000*%
%ADD17C,0.250000*%
G04 APERTURE END LIST*
D10*
X124548900Y-75598100D03*
X122008900Y-74328100D03*
X124548900Y-73058100D03*
X122008900Y-71788100D03*
X124548900Y-70518100D03*
X122008900Y-69248100D03*
X124548900Y-67978100D03*
D11*
X122008900Y-66708100D03*
D12*
X115658900Y-65218100D03*
X115658900Y-77088100D03*
X115671600Y-93311000D03*
X115671600Y-81441000D03*
D11*
X122021600Y-82931000D03*
D10*
X124561600Y-84201000D03*
X122021600Y-85471000D03*
X124561600Y-86741000D03*
X122021600Y-88011000D03*
X124561600Y-89281000D03*
X122021600Y-90551000D03*
X124561600Y-91821000D03*
D13*
X144371300Y-92214700D03*
X139321300Y-92214700D03*
X144371300Y-89674700D03*
X139321300Y-89674700D03*
X144371300Y-87134700D03*
X139321300Y-87134700D03*
X144371300Y-84594700D03*
X139321300Y-84594700D03*
X144371300Y-82054700D03*
X139321300Y-82054700D03*
X129720100Y-82059700D03*
X134770100Y-82059700D03*
X129720100Y-84599700D03*
X134770100Y-84599700D03*
X129720100Y-87139700D03*
X134770100Y-87139700D03*
X129720100Y-89679700D03*
X134770100Y-89679700D03*
X129720100Y-92219700D03*
X134770100Y-92219700D03*
X134782800Y-75882500D03*
X129732800Y-75882500D03*
X134782800Y-73342500D03*
X129732800Y-73342500D03*
X134782800Y-70802500D03*
X129732800Y-70802500D03*
X134782800Y-68262500D03*
X129732800Y-68262500D03*
X134782800Y-65722500D03*
X129732800Y-65722500D03*
X139207000Y-65747900D03*
X144257000Y-65747900D03*
X139207000Y-68287900D03*
X144257000Y-68287900D03*
X139207000Y-70827900D03*
X144257000Y-70827900D03*
X139207000Y-73367900D03*
X144257000Y-73367900D03*
X139207000Y-75907900D03*
X144257000Y-75907900D03*
D14*
X149580600Y-84366100D03*
X149580600Y-81826100D03*
X149580600Y-79286100D03*
X149580600Y-76746100D03*
D15*
X149580600Y-74206100D03*
D16*
X143002000Y-80759300D03*
X142989300Y-83324700D03*
X142989300Y-85877400D03*
X142989300Y-88430100D03*
X143002000Y-90982800D03*
X133438900Y-80759300D03*
X133438900Y-83312000D03*
X133413500Y-85877400D03*
X133400800Y-88442800D03*
X133413500Y-90982800D03*
X133413500Y-67043300D03*
X133400800Y-69583300D03*
X133413500Y-72110600D03*
X133413500Y-74637900D03*
X133413500Y-77165200D03*
X142951200Y-67056000D03*
X142951200Y-69583300D03*
X142976600Y-72097900D03*
X142989300Y-74637900D03*
X142963900Y-77165200D03*
D17*
X141706600Y-82054700D02*
X143002000Y-80759300D01*
X139321300Y-82054700D02*
X141706600Y-82054700D01*
X120933899Y-74844101D02*
X120933899Y-68783101D01*
X122008900Y-67708100D02*
X122008900Y-66708100D01*
X120933899Y-68783101D02*
X122008900Y-67708100D01*
X122021600Y-75931802D02*
X120933899Y-74844101D01*
X122021600Y-82931000D02*
X122021600Y-75931802D01*
X123264559Y-65633099D02*
X124548900Y-66917440D01*
X120998899Y-65633099D02*
X123264559Y-65633099D01*
X124548900Y-66917440D02*
X124548900Y-67978100D01*
X120483889Y-66148109D02*
X120998899Y-65633099D01*
X120483889Y-83478291D02*
X120483889Y-66148109D01*
X121206598Y-84201000D02*
X120483889Y-83478291D01*
X124561600Y-84201000D02*
X121206598Y-84201000D01*
X141719300Y-84594700D02*
X142989300Y-83324700D01*
X139321300Y-84594700D02*
X141719300Y-84594700D01*
X141732000Y-87134700D02*
X142989300Y-85877400D01*
X139321300Y-87134700D02*
X141732000Y-87134700D01*
X123069560Y-69248100D02*
X122008900Y-69248100D01*
X124869902Y-69248100D02*
X123069560Y-69248100D01*
X125623901Y-68494101D02*
X124869902Y-69248100D01*
X125623901Y-67356031D02*
X125623901Y-68494101D01*
X123450960Y-65183090D02*
X125623901Y-67356031D01*
X120033879Y-84543939D02*
X120033880Y-65961708D01*
X120812499Y-65183089D02*
X123450960Y-65183090D01*
X120033880Y-65961708D02*
X120812499Y-65183089D01*
X120960940Y-85471000D02*
X120033879Y-84543939D01*
X122021600Y-85471000D02*
X120960940Y-85471000D01*
X125298899Y-69768101D02*
X124548900Y-70518100D01*
X126073911Y-68993089D02*
X125298899Y-69768101D01*
X126073911Y-67169631D02*
X126073911Y-68993089D01*
X123637361Y-64733081D02*
X126073911Y-67169631D01*
X120626100Y-64733080D02*
X123637361Y-64733081D01*
X119583871Y-65775307D02*
X120626100Y-64733080D01*
X119583870Y-84730338D02*
X119583871Y-65775307D01*
X121594530Y-86741000D02*
X119583870Y-84730338D01*
X124561600Y-86741000D02*
X121594530Y-86741000D01*
X141744700Y-89674700D02*
X142989300Y-88430100D01*
X139321300Y-89674700D02*
X141744700Y-89674700D01*
X141770100Y-92214700D02*
X143002000Y-90982800D01*
X139321300Y-92214700D02*
X141770100Y-92214700D01*
X123069560Y-71788100D02*
X122008900Y-71788100D01*
X124869902Y-71788100D02*
X123069560Y-71788100D01*
X126523921Y-66983231D02*
X126523921Y-70134081D01*
X123823762Y-64283072D02*
X126523921Y-66983231D01*
X120439701Y-64283071D02*
X123823762Y-64283072D01*
X126523921Y-70134081D02*
X124869902Y-71788100D01*
X119133863Y-65588906D02*
X120439701Y-64283071D01*
X119133861Y-85123261D02*
X119133863Y-65588906D01*
X122021600Y-88011000D02*
X119133861Y-85123261D01*
X132138500Y-82059700D02*
X133438900Y-80759300D01*
X129720100Y-82059700D02*
X132138500Y-82059700D01*
X132151200Y-84599700D02*
X133438900Y-83312000D01*
X129720100Y-84599700D02*
X132151200Y-84599700D01*
X132151200Y-87139700D02*
X133413500Y-85877400D01*
X129720100Y-87139700D02*
X132151200Y-87139700D01*
X132163900Y-89679700D02*
X133400800Y-88442800D01*
X129720100Y-89679700D02*
X132163900Y-89679700D01*
X132176600Y-92219700D02*
X133413500Y-90982800D01*
X129720100Y-92219700D02*
X132176600Y-92219700D01*
X132092700Y-65722500D02*
X133413500Y-67043300D01*
X129732800Y-65722500D02*
X132092700Y-65722500D01*
X132080000Y-68262500D02*
X133400800Y-69583300D01*
X129732800Y-68262500D02*
X132080000Y-68262500D01*
X132105400Y-70802500D02*
X133413500Y-72110600D01*
X129732800Y-70802500D02*
X132105400Y-70802500D01*
X132118100Y-73342500D02*
X133413500Y-74637900D01*
X129732800Y-73342500D02*
X132118100Y-73342500D01*
X132130800Y-75882500D02*
X133413500Y-77165200D01*
X129732800Y-75882500D02*
X132130800Y-75882500D01*
X141643100Y-65747900D02*
X142951200Y-67056000D01*
X139207000Y-65747900D02*
X141643100Y-65747900D01*
X141655800Y-68287900D02*
X142951200Y-69583300D01*
X139207000Y-68287900D02*
X141655800Y-68287900D01*
X141706600Y-70827900D02*
X142976600Y-72097900D01*
X139207000Y-70827900D02*
X141706600Y-70827900D01*
X141719300Y-73367900D02*
X142989300Y-74637900D01*
X139207000Y-73367900D02*
X141719300Y-73367900D01*
X141706600Y-75907900D02*
X142963900Y-77165200D01*
X139207000Y-75907900D02*
X141706600Y-75907900D01*
X125311599Y-92570999D02*
X124561600Y-91821000D01*
X146201301Y-93044701D02*
X125785301Y-93044701D01*
X125785301Y-93044701D02*
X125311599Y-92570999D01*
X148730601Y-90515401D02*
X146201301Y-93044701D01*
X148730601Y-85216099D02*
X148730601Y-90515401D01*
X149580600Y-84366100D02*
X148730601Y-85216099D01*
X125298899Y-76348099D02*
X124548900Y-75598100D01*
X126536620Y-77585820D02*
X125298899Y-76348099D01*
X126536620Y-89845980D02*
X126536620Y-77585820D01*
X124561600Y-91821000D02*
X126536620Y-89845980D01*
X144371300Y-91464700D02*
X144371300Y-82054700D01*
X144371300Y-92214700D02*
X144371300Y-91464700D01*
X149352000Y-82054700D02*
X149580600Y-81826100D01*
X144371300Y-82054700D02*
X149352000Y-82054700D01*
X134770100Y-92219700D02*
X134770100Y-82059700D01*
X148378519Y-79286100D02*
X149580600Y-79286100D01*
X136793700Y-79286100D02*
X148378519Y-79286100D01*
X134770100Y-81309700D02*
X136793700Y-79286100D01*
X134770100Y-82059700D02*
X134770100Y-81309700D01*
X134782800Y-65722500D02*
X134782800Y-75882500D01*
X134782800Y-76632500D02*
X136445800Y-78295500D01*
X134782800Y-75882500D02*
X134782800Y-76632500D01*
X148031200Y-78295500D02*
X149580600Y-76746100D01*
X136445800Y-78295500D02*
X148031200Y-78295500D01*
X144257000Y-65747900D02*
X144257000Y-68287900D01*
X144257000Y-68287900D02*
X144257000Y-70827900D01*
X144257000Y-70827900D02*
X144257000Y-73367900D01*
X144257000Y-73367900D02*
X144257000Y-75907900D01*
X148742400Y-73367900D02*
X149580600Y-74206100D01*
X144257000Y-73367900D02*
X148742400Y-73367900D01*
X122771599Y-89216801D02*
X122771599Y-89801001D01*
X122771599Y-89801001D02*
X122021600Y-90551000D01*
X123782401Y-88205999D02*
X122771599Y-89216801D01*
X124687603Y-88205999D02*
X123782401Y-88205999D01*
X125636601Y-87257001D02*
X124687603Y-88205999D01*
X122758899Y-80807297D02*
X125636601Y-83684999D01*
X125636601Y-83684999D02*
X125636601Y-87257001D01*
X122758899Y-75078099D02*
X122758899Y-80807297D01*
X122008900Y-74328100D02*
X122758899Y-75078099D01*
X123473899Y-74133101D02*
X123798901Y-73808099D01*
X123473899Y-80712999D02*
X123473899Y-74133101D01*
X123798901Y-73808099D02*
X124548900Y-73058100D01*
X126086611Y-83325711D02*
X123473899Y-80712999D01*
X126086611Y-87755989D02*
X126086611Y-83325711D01*
X124561600Y-89281000D02*
X126086611Y-87755989D01*
M02*
