G04 #@! TF.GenerationSoftware,KiCad,Pcbnew,(5.1.4-0-10_14)*
G04 #@! TF.CreationDate,2019-11-29T21:54:42+03:00*
G04 #@! TF.ProjectId,VHClick-rev1,5648436c-6963-46b2-9d72-6576312e6b69,rev?*
G04 #@! TF.SameCoordinates,Original*
G04 #@! TF.FileFunction,Paste,Top*
G04 #@! TF.FilePolarity,Positive*
%FSLAX46Y46*%
G04 Gerber Fmt 4.6, Leading zero omitted, Abs format (unit mm)*
G04 Created by KiCad (PCBNEW (5.1.4-0-10_14)) date 2019-11-29 21:54:42*
%MOMM*%
%LPD*%
G04 APERTURE LIST*
%ADD10R,3.150000X1.000000*%
G04 APERTURE END LIST*
D10*
X144371300Y-92214700D03*
X139321300Y-92214700D03*
X144371300Y-89674700D03*
X139321300Y-89674700D03*
X144371300Y-87134700D03*
X139321300Y-87134700D03*
X144371300Y-84594700D03*
X139321300Y-84594700D03*
X144371300Y-82054700D03*
X139321300Y-82054700D03*
X129720100Y-82059700D03*
X134770100Y-82059700D03*
X129720100Y-84599700D03*
X134770100Y-84599700D03*
X129720100Y-87139700D03*
X134770100Y-87139700D03*
X129720100Y-89679700D03*
X134770100Y-89679700D03*
X129720100Y-92219700D03*
X134770100Y-92219700D03*
X134782800Y-75882500D03*
X129732800Y-75882500D03*
X134782800Y-73342500D03*
X129732800Y-73342500D03*
X134782800Y-70802500D03*
X129732800Y-70802500D03*
X134782800Y-68262500D03*
X129732800Y-68262500D03*
X134782800Y-65722500D03*
X129732800Y-65722500D03*
X139207000Y-65747900D03*
X144257000Y-65747900D03*
X139207000Y-68287900D03*
X144257000Y-68287900D03*
X139207000Y-70827900D03*
X144257000Y-70827900D03*
X139207000Y-73367900D03*
X144257000Y-73367900D03*
X139207000Y-75907900D03*
X144257000Y-75907900D03*
M02*
