G04 #@! TF.GenerationSoftware,KiCad,Pcbnew,(5.1.4-0-10_14)*
G04 #@! TF.CreationDate,2019-11-29T21:54:42+03:00*
G04 #@! TF.ProjectId,VHClick-rev1,5648436c-6963-46b2-9d72-6576312e6b69,rev?*
G04 #@! TF.SameCoordinates,Original*
G04 #@! TF.FileFunction,Soldermask,Top*
G04 #@! TF.FilePolarity,Negative*
%FSLAX46Y46*%
G04 Gerber Fmt 4.6, Leading zero omitted, Abs format (unit mm)*
G04 Created by KiCad (PCBNEW (5.1.4-0-10_14)) date 2019-11-29 21:54:42*
%MOMM*%
%LPD*%
G04 APERTURE LIST*
%ADD10C,0.100000*%
G04 APERTURE END LIST*
D10*
G36*
X116218808Y-91507093D02*
G01*
X116560217Y-91648510D01*
X116560219Y-91648511D01*
X116867480Y-91853816D01*
X117128784Y-92115120D01*
X117185776Y-92200414D01*
X117334090Y-92422383D01*
X117475507Y-92763792D01*
X117547600Y-93126229D01*
X117547600Y-93495771D01*
X117475507Y-93858208D01*
X117334090Y-94199617D01*
X117334089Y-94199619D01*
X117128784Y-94506880D01*
X116867480Y-94768184D01*
X116560219Y-94973489D01*
X116560218Y-94973490D01*
X116560217Y-94973490D01*
X116218808Y-95114907D01*
X115856371Y-95187000D01*
X115486829Y-95187000D01*
X115124392Y-95114907D01*
X114782983Y-94973490D01*
X114782982Y-94973490D01*
X114782981Y-94973489D01*
X114475720Y-94768184D01*
X114214416Y-94506880D01*
X114009111Y-94199619D01*
X114009110Y-94199617D01*
X113867693Y-93858208D01*
X113795600Y-93495771D01*
X113795600Y-93126229D01*
X113867693Y-92763792D01*
X114009110Y-92422383D01*
X114157425Y-92200414D01*
X114214416Y-92115120D01*
X114475720Y-91853816D01*
X114782981Y-91648511D01*
X114782983Y-91648510D01*
X115124392Y-91507093D01*
X115486829Y-91435000D01*
X115856371Y-91435000D01*
X116218808Y-91507093D01*
X116218808Y-91507093D01*
G37*
G36*
X131346100Y-92770700D02*
G01*
X128094100Y-92770700D01*
X128094100Y-91668700D01*
X131346100Y-91668700D01*
X131346100Y-92770700D01*
X131346100Y-92770700D01*
G37*
G36*
X136396100Y-92770700D02*
G01*
X133144100Y-92770700D01*
X133144100Y-91668700D01*
X136396100Y-91668700D01*
X136396100Y-92770700D01*
X136396100Y-92770700D01*
G37*
G36*
X145997300Y-92765700D02*
G01*
X142745300Y-92765700D01*
X142745300Y-91663700D01*
X145997300Y-91663700D01*
X145997300Y-92765700D01*
X145997300Y-92765700D01*
G37*
G36*
X140947300Y-92765700D02*
G01*
X137695300Y-92765700D01*
X137695300Y-91663700D01*
X140947300Y-91663700D01*
X140947300Y-92765700D01*
X140947300Y-92765700D01*
G37*
G36*
X124795242Y-91050781D02*
G01*
X124941014Y-91111162D01*
X124941016Y-91111163D01*
X125072208Y-91198822D01*
X125183778Y-91310392D01*
X125271437Y-91441584D01*
X125271438Y-91441586D01*
X125331819Y-91587358D01*
X125362600Y-91742107D01*
X125362600Y-91899893D01*
X125331819Y-92054642D01*
X125306768Y-92115120D01*
X125271437Y-92200416D01*
X125183778Y-92331608D01*
X125072208Y-92443178D01*
X124941016Y-92530837D01*
X124941015Y-92530838D01*
X124941014Y-92530838D01*
X124795242Y-92591219D01*
X124640493Y-92622000D01*
X124482707Y-92622000D01*
X124327958Y-92591219D01*
X124182186Y-92530838D01*
X124182185Y-92530838D01*
X124182184Y-92530837D01*
X124050992Y-92443178D01*
X123939422Y-92331608D01*
X123851763Y-92200416D01*
X123816432Y-92115120D01*
X123791381Y-92054642D01*
X123760600Y-91899893D01*
X123760600Y-91742107D01*
X123791381Y-91587358D01*
X123851762Y-91441586D01*
X123851763Y-91441584D01*
X123939422Y-91310392D01*
X124050992Y-91198822D01*
X124182184Y-91111163D01*
X124182186Y-91111162D01*
X124327958Y-91050781D01*
X124482707Y-91020000D01*
X124640493Y-91020000D01*
X124795242Y-91050781D01*
X124795242Y-91050781D01*
G37*
G36*
X122255242Y-89780781D02*
G01*
X122401014Y-89841162D01*
X122401016Y-89841163D01*
X122532208Y-89928822D01*
X122643778Y-90040392D01*
X122651012Y-90051219D01*
X122731438Y-90171586D01*
X122791819Y-90317358D01*
X122822600Y-90472107D01*
X122822600Y-90629893D01*
X122791819Y-90784642D01*
X122731438Y-90930414D01*
X122731437Y-90930416D01*
X122643778Y-91061608D01*
X122532208Y-91173178D01*
X122401016Y-91260837D01*
X122401015Y-91260838D01*
X122401014Y-91260838D01*
X122255242Y-91321219D01*
X122100493Y-91352000D01*
X121942707Y-91352000D01*
X121787958Y-91321219D01*
X121642186Y-91260838D01*
X121642185Y-91260838D01*
X121642184Y-91260837D01*
X121510992Y-91173178D01*
X121399422Y-91061608D01*
X121311763Y-90930416D01*
X121311762Y-90930414D01*
X121251381Y-90784642D01*
X121220600Y-90629893D01*
X121220600Y-90472107D01*
X121251381Y-90317358D01*
X121311762Y-90171586D01*
X121392188Y-90051219D01*
X121399422Y-90040392D01*
X121510992Y-89928822D01*
X121642184Y-89841163D01*
X121642186Y-89841162D01*
X121787958Y-89780781D01*
X121942707Y-89750000D01*
X122100493Y-89750000D01*
X122255242Y-89780781D01*
X122255242Y-89780781D01*
G37*
G36*
X136396100Y-90230700D02*
G01*
X133144100Y-90230700D01*
X133144100Y-89128700D01*
X136396100Y-89128700D01*
X136396100Y-90230700D01*
X136396100Y-90230700D01*
G37*
G36*
X131346100Y-90230700D02*
G01*
X128094100Y-90230700D01*
X128094100Y-89128700D01*
X131346100Y-89128700D01*
X131346100Y-90230700D01*
X131346100Y-90230700D01*
G37*
G36*
X140947300Y-90225700D02*
G01*
X137695300Y-90225700D01*
X137695300Y-89123700D01*
X140947300Y-89123700D01*
X140947300Y-90225700D01*
X140947300Y-90225700D01*
G37*
G36*
X145997300Y-90225700D02*
G01*
X142745300Y-90225700D01*
X142745300Y-89123700D01*
X145997300Y-89123700D01*
X145997300Y-90225700D01*
X145997300Y-90225700D01*
G37*
G36*
X124795242Y-88510781D02*
G01*
X124941014Y-88571162D01*
X124941016Y-88571163D01*
X125072208Y-88658822D01*
X125183778Y-88770392D01*
X125191012Y-88781219D01*
X125271438Y-88901586D01*
X125331819Y-89047358D01*
X125362600Y-89202107D01*
X125362600Y-89359893D01*
X125331819Y-89514642D01*
X125271438Y-89660414D01*
X125271437Y-89660416D01*
X125183778Y-89791608D01*
X125072208Y-89903178D01*
X124941016Y-89990837D01*
X124941015Y-89990838D01*
X124941014Y-89990838D01*
X124795242Y-90051219D01*
X124640493Y-90082000D01*
X124482707Y-90082000D01*
X124327958Y-90051219D01*
X124182186Y-89990838D01*
X124182185Y-89990838D01*
X124182184Y-89990837D01*
X124050992Y-89903178D01*
X123939422Y-89791608D01*
X123851763Y-89660416D01*
X123851762Y-89660414D01*
X123791381Y-89514642D01*
X123760600Y-89359893D01*
X123760600Y-89202107D01*
X123791381Y-89047358D01*
X123851762Y-88901586D01*
X123932188Y-88781219D01*
X123939422Y-88770392D01*
X124050992Y-88658822D01*
X124182184Y-88571163D01*
X124182186Y-88571162D01*
X124327958Y-88510781D01*
X124482707Y-88480000D01*
X124640493Y-88480000D01*
X124795242Y-88510781D01*
X124795242Y-88510781D01*
G37*
G36*
X122255242Y-87240781D02*
G01*
X122401014Y-87301162D01*
X122401016Y-87301163D01*
X122532208Y-87388822D01*
X122643778Y-87500392D01*
X122651012Y-87511219D01*
X122731438Y-87631586D01*
X122791819Y-87777358D01*
X122822600Y-87932107D01*
X122822600Y-88089893D01*
X122791819Y-88244642D01*
X122731438Y-88390414D01*
X122731437Y-88390416D01*
X122643778Y-88521608D01*
X122532208Y-88633178D01*
X122401016Y-88720837D01*
X122401015Y-88720838D01*
X122401014Y-88720838D01*
X122255242Y-88781219D01*
X122100493Y-88812000D01*
X121942707Y-88812000D01*
X121787958Y-88781219D01*
X121642186Y-88720838D01*
X121642185Y-88720838D01*
X121642184Y-88720837D01*
X121510992Y-88633178D01*
X121399422Y-88521608D01*
X121311763Y-88390416D01*
X121311762Y-88390414D01*
X121251381Y-88244642D01*
X121220600Y-88089893D01*
X121220600Y-87932107D01*
X121251381Y-87777358D01*
X121311762Y-87631586D01*
X121392188Y-87511219D01*
X121399422Y-87500392D01*
X121510992Y-87388822D01*
X121642184Y-87301163D01*
X121642186Y-87301162D01*
X121787958Y-87240781D01*
X121942707Y-87210000D01*
X122100493Y-87210000D01*
X122255242Y-87240781D01*
X122255242Y-87240781D01*
G37*
G36*
X136396100Y-87690700D02*
G01*
X133144100Y-87690700D01*
X133144100Y-86588700D01*
X136396100Y-86588700D01*
X136396100Y-87690700D01*
X136396100Y-87690700D01*
G37*
G36*
X131346100Y-87690700D02*
G01*
X128094100Y-87690700D01*
X128094100Y-86588700D01*
X131346100Y-86588700D01*
X131346100Y-87690700D01*
X131346100Y-87690700D01*
G37*
G36*
X145997300Y-87685700D02*
G01*
X142745300Y-87685700D01*
X142745300Y-86583700D01*
X145997300Y-86583700D01*
X145997300Y-87685700D01*
X145997300Y-87685700D01*
G37*
G36*
X140947300Y-87685700D02*
G01*
X137695300Y-87685700D01*
X137695300Y-86583700D01*
X140947300Y-86583700D01*
X140947300Y-87685700D01*
X140947300Y-87685700D01*
G37*
G36*
X124795242Y-85970781D02*
G01*
X124941014Y-86031162D01*
X124941016Y-86031163D01*
X125072208Y-86118822D01*
X125183778Y-86230392D01*
X125191012Y-86241219D01*
X125271438Y-86361586D01*
X125331819Y-86507358D01*
X125362600Y-86662107D01*
X125362600Y-86819893D01*
X125331819Y-86974642D01*
X125271438Y-87120414D01*
X125271437Y-87120416D01*
X125183778Y-87251608D01*
X125072208Y-87363178D01*
X124941016Y-87450837D01*
X124941015Y-87450838D01*
X124941014Y-87450838D01*
X124795242Y-87511219D01*
X124640493Y-87542000D01*
X124482707Y-87542000D01*
X124327958Y-87511219D01*
X124182186Y-87450838D01*
X124182185Y-87450838D01*
X124182184Y-87450837D01*
X124050992Y-87363178D01*
X123939422Y-87251608D01*
X123851763Y-87120416D01*
X123851762Y-87120414D01*
X123791381Y-86974642D01*
X123760600Y-86819893D01*
X123760600Y-86662107D01*
X123791381Y-86507358D01*
X123851762Y-86361586D01*
X123932188Y-86241219D01*
X123939422Y-86230392D01*
X124050992Y-86118822D01*
X124182184Y-86031163D01*
X124182186Y-86031162D01*
X124327958Y-85970781D01*
X124482707Y-85940000D01*
X124640493Y-85940000D01*
X124795242Y-85970781D01*
X124795242Y-85970781D01*
G37*
G36*
X122255242Y-84700781D02*
G01*
X122401014Y-84761162D01*
X122401016Y-84761163D01*
X122532208Y-84848822D01*
X122643778Y-84960392D01*
X122651012Y-84971219D01*
X122731438Y-85091586D01*
X122791819Y-85237358D01*
X122822600Y-85392107D01*
X122822600Y-85549893D01*
X122791819Y-85704642D01*
X122731438Y-85850414D01*
X122731437Y-85850416D01*
X122643778Y-85981608D01*
X122532208Y-86093178D01*
X122401016Y-86180837D01*
X122401015Y-86180838D01*
X122401014Y-86180838D01*
X122255242Y-86241219D01*
X122100493Y-86272000D01*
X121942707Y-86272000D01*
X121787958Y-86241219D01*
X121642186Y-86180838D01*
X121642185Y-86180838D01*
X121642184Y-86180837D01*
X121510992Y-86093178D01*
X121399422Y-85981608D01*
X121311763Y-85850416D01*
X121311762Y-85850414D01*
X121251381Y-85704642D01*
X121220600Y-85549893D01*
X121220600Y-85392107D01*
X121251381Y-85237358D01*
X121311762Y-85091586D01*
X121392188Y-84971219D01*
X121399422Y-84960392D01*
X121510992Y-84848822D01*
X121642184Y-84761163D01*
X121642186Y-84761162D01*
X121787958Y-84700781D01*
X121942707Y-84670000D01*
X122100493Y-84670000D01*
X122255242Y-84700781D01*
X122255242Y-84700781D01*
G37*
G36*
X149691042Y-83471618D02*
G01*
X149757227Y-83478137D01*
X149927066Y-83529657D01*
X150083591Y-83613322D01*
X150119329Y-83642652D01*
X150220786Y-83725914D01*
X150299299Y-83821584D01*
X150333378Y-83863109D01*
X150417043Y-84019634D01*
X150468563Y-84189473D01*
X150485959Y-84366100D01*
X150468563Y-84542727D01*
X150417043Y-84712566D01*
X150333378Y-84869091D01*
X150304048Y-84904829D01*
X150220786Y-85006286D01*
X150119329Y-85089548D01*
X150083591Y-85118878D01*
X149927066Y-85202543D01*
X149757227Y-85254063D01*
X149691042Y-85260582D01*
X149624860Y-85267100D01*
X149536340Y-85267100D01*
X149470158Y-85260582D01*
X149403973Y-85254063D01*
X149234134Y-85202543D01*
X149077609Y-85118878D01*
X149041871Y-85089548D01*
X148940414Y-85006286D01*
X148857152Y-84904829D01*
X148827822Y-84869091D01*
X148744157Y-84712566D01*
X148692637Y-84542727D01*
X148675241Y-84366100D01*
X148692637Y-84189473D01*
X148744157Y-84019634D01*
X148827822Y-83863109D01*
X148861901Y-83821584D01*
X148940414Y-83725914D01*
X149041871Y-83642652D01*
X149077609Y-83613322D01*
X149234134Y-83529657D01*
X149403973Y-83478137D01*
X149470158Y-83471618D01*
X149536340Y-83465100D01*
X149624860Y-83465100D01*
X149691042Y-83471618D01*
X149691042Y-83471618D01*
G37*
G36*
X131346100Y-85150700D02*
G01*
X128094100Y-85150700D01*
X128094100Y-84048700D01*
X131346100Y-84048700D01*
X131346100Y-85150700D01*
X131346100Y-85150700D01*
G37*
G36*
X136396100Y-85150700D02*
G01*
X133144100Y-85150700D01*
X133144100Y-84048700D01*
X136396100Y-84048700D01*
X136396100Y-85150700D01*
X136396100Y-85150700D01*
G37*
G36*
X140947300Y-85145700D02*
G01*
X137695300Y-85145700D01*
X137695300Y-84043700D01*
X140947300Y-84043700D01*
X140947300Y-85145700D01*
X140947300Y-85145700D01*
G37*
G36*
X145997300Y-85145700D02*
G01*
X142745300Y-85145700D01*
X142745300Y-84043700D01*
X145997300Y-84043700D01*
X145997300Y-85145700D01*
X145997300Y-85145700D01*
G37*
G36*
X124795242Y-83430781D02*
G01*
X124941014Y-83491162D01*
X124941016Y-83491163D01*
X125072208Y-83578822D01*
X125183778Y-83690392D01*
X125211579Y-83732000D01*
X125271438Y-83821586D01*
X125331819Y-83967358D01*
X125362600Y-84122107D01*
X125362600Y-84279893D01*
X125331819Y-84434642D01*
X125271438Y-84580414D01*
X125271437Y-84580416D01*
X125183778Y-84711608D01*
X125072208Y-84823178D01*
X124941016Y-84910837D01*
X124941015Y-84910838D01*
X124941014Y-84910838D01*
X124795242Y-84971219D01*
X124640493Y-85002000D01*
X124482707Y-85002000D01*
X124327958Y-84971219D01*
X124182186Y-84910838D01*
X124182185Y-84910838D01*
X124182184Y-84910837D01*
X124050992Y-84823178D01*
X123939422Y-84711608D01*
X123851763Y-84580416D01*
X123851762Y-84580414D01*
X123791381Y-84434642D01*
X123760600Y-84279893D01*
X123760600Y-84122107D01*
X123791381Y-83967358D01*
X123851762Y-83821586D01*
X123911621Y-83732000D01*
X123939422Y-83690392D01*
X124050992Y-83578822D01*
X124182184Y-83491163D01*
X124182186Y-83491162D01*
X124327958Y-83430781D01*
X124482707Y-83400000D01*
X124640493Y-83400000D01*
X124795242Y-83430781D01*
X124795242Y-83430781D01*
G37*
G36*
X122822600Y-83732000D02*
G01*
X121220600Y-83732000D01*
X121220600Y-82130000D01*
X122822600Y-82130000D01*
X122822600Y-83732000D01*
X122822600Y-83732000D01*
G37*
G36*
X116218808Y-79637093D02*
G01*
X116560217Y-79778510D01*
X116560219Y-79778511D01*
X116576050Y-79789089D01*
X116867480Y-79983816D01*
X117128784Y-80245120D01*
X117334090Y-80552383D01*
X117475507Y-80893792D01*
X117547600Y-81256229D01*
X117547600Y-81625771D01*
X117475507Y-81988208D01*
X117399143Y-82172566D01*
X117334089Y-82329619D01*
X117128784Y-82636880D01*
X116867480Y-82898184D01*
X116560219Y-83103489D01*
X116560218Y-83103490D01*
X116560217Y-83103490D01*
X116218808Y-83244907D01*
X115856371Y-83317000D01*
X115486829Y-83317000D01*
X115124392Y-83244907D01*
X114782983Y-83103490D01*
X114782982Y-83103490D01*
X114782981Y-83103489D01*
X114475720Y-82898184D01*
X114214416Y-82636880D01*
X114009111Y-82329619D01*
X113944057Y-82172566D01*
X113867693Y-81988208D01*
X113795600Y-81625771D01*
X113795600Y-81256229D01*
X113867693Y-80893792D01*
X114009110Y-80552383D01*
X114214416Y-80245120D01*
X114475720Y-79983816D01*
X114767150Y-79789089D01*
X114782981Y-79778511D01*
X114782983Y-79778510D01*
X115124392Y-79637093D01*
X115486829Y-79565000D01*
X115856371Y-79565000D01*
X116218808Y-79637093D01*
X116218808Y-79637093D01*
G37*
G36*
X149691042Y-80931618D02*
G01*
X149757227Y-80938137D01*
X149927066Y-80989657D01*
X150083591Y-81073322D01*
X150119329Y-81102652D01*
X150220786Y-81185914D01*
X150304048Y-81287371D01*
X150333378Y-81323109D01*
X150417043Y-81479634D01*
X150468563Y-81649473D01*
X150485959Y-81826100D01*
X150468563Y-82002727D01*
X150417043Y-82172566D01*
X150333378Y-82329091D01*
X150304048Y-82364829D01*
X150220786Y-82466286D01*
X150119329Y-82549548D01*
X150083591Y-82578878D01*
X149927066Y-82662543D01*
X149757227Y-82714063D01*
X149691042Y-82720582D01*
X149624860Y-82727100D01*
X149536340Y-82727100D01*
X149470158Y-82720582D01*
X149403973Y-82714063D01*
X149234134Y-82662543D01*
X149077609Y-82578878D01*
X149041871Y-82549548D01*
X148940414Y-82466286D01*
X148857152Y-82364829D01*
X148827822Y-82329091D01*
X148744157Y-82172566D01*
X148692637Y-82002727D01*
X148675241Y-81826100D01*
X148692637Y-81649473D01*
X148744157Y-81479634D01*
X148827822Y-81323109D01*
X148857152Y-81287371D01*
X148940414Y-81185914D01*
X149041871Y-81102652D01*
X149077609Y-81073322D01*
X149234134Y-80989657D01*
X149403973Y-80938137D01*
X149470158Y-80931618D01*
X149536340Y-80925100D01*
X149624860Y-80925100D01*
X149691042Y-80931618D01*
X149691042Y-80931618D01*
G37*
G36*
X136396100Y-82610700D02*
G01*
X133144100Y-82610700D01*
X133144100Y-81508700D01*
X136396100Y-81508700D01*
X136396100Y-82610700D01*
X136396100Y-82610700D01*
G37*
G36*
X131346100Y-82610700D02*
G01*
X128094100Y-82610700D01*
X128094100Y-81508700D01*
X131346100Y-81508700D01*
X131346100Y-82610700D01*
X131346100Y-82610700D01*
G37*
G36*
X140947300Y-82605700D02*
G01*
X137695300Y-82605700D01*
X137695300Y-81503700D01*
X140947300Y-81503700D01*
X140947300Y-82605700D01*
X140947300Y-82605700D01*
G37*
G36*
X145997300Y-82605700D02*
G01*
X142745300Y-82605700D01*
X142745300Y-81503700D01*
X145997300Y-81503700D01*
X145997300Y-82605700D01*
X145997300Y-82605700D01*
G37*
G36*
X149691042Y-78391618D02*
G01*
X149757227Y-78398137D01*
X149927066Y-78449657D01*
X150083591Y-78533322D01*
X150119329Y-78562652D01*
X150220786Y-78645914D01*
X150304048Y-78747371D01*
X150333378Y-78783109D01*
X150417043Y-78939634D01*
X150468563Y-79109473D01*
X150485959Y-79286100D01*
X150468563Y-79462727D01*
X150417043Y-79632566D01*
X150333378Y-79789091D01*
X150304048Y-79824829D01*
X150220786Y-79926286D01*
X150150684Y-79983816D01*
X150083591Y-80038878D01*
X149927066Y-80122543D01*
X149757227Y-80174063D01*
X149691043Y-80180581D01*
X149624860Y-80187100D01*
X149536340Y-80187100D01*
X149470157Y-80180581D01*
X149403973Y-80174063D01*
X149234134Y-80122543D01*
X149077609Y-80038878D01*
X149010516Y-79983816D01*
X148940414Y-79926286D01*
X148857152Y-79824829D01*
X148827822Y-79789091D01*
X148744157Y-79632566D01*
X148692637Y-79462727D01*
X148675241Y-79286100D01*
X148692637Y-79109473D01*
X148744157Y-78939634D01*
X148827822Y-78783109D01*
X148857152Y-78747371D01*
X148940414Y-78645914D01*
X149041871Y-78562652D01*
X149077609Y-78533322D01*
X149234134Y-78449657D01*
X149403973Y-78398137D01*
X149470158Y-78391618D01*
X149536340Y-78385100D01*
X149624860Y-78385100D01*
X149691042Y-78391618D01*
X149691042Y-78391618D01*
G37*
G36*
X116206108Y-75284193D02*
G01*
X116547517Y-75425610D01*
X116547519Y-75425611D01*
X116854780Y-75630916D01*
X117116084Y-75892220D01*
X117258870Y-76105914D01*
X117321390Y-76199483D01*
X117462807Y-76540892D01*
X117534900Y-76903329D01*
X117534900Y-77272871D01*
X117462807Y-77635308D01*
X117321390Y-77976717D01*
X117321389Y-77976719D01*
X117116084Y-78283980D01*
X116854780Y-78545284D01*
X116547519Y-78750589D01*
X116547518Y-78750590D01*
X116547517Y-78750590D01*
X116206108Y-78892007D01*
X115843671Y-78964100D01*
X115474129Y-78964100D01*
X115111692Y-78892007D01*
X114770283Y-78750590D01*
X114770282Y-78750590D01*
X114770281Y-78750589D01*
X114463020Y-78545284D01*
X114201716Y-78283980D01*
X113996411Y-77976719D01*
X113996410Y-77976717D01*
X113854993Y-77635308D01*
X113782900Y-77272871D01*
X113782900Y-76903329D01*
X113854993Y-76540892D01*
X113996410Y-76199483D01*
X114058931Y-76105914D01*
X114201716Y-75892220D01*
X114463020Y-75630916D01*
X114770281Y-75425611D01*
X114770283Y-75425610D01*
X115111692Y-75284193D01*
X115474129Y-75212100D01*
X115843671Y-75212100D01*
X116206108Y-75284193D01*
X116206108Y-75284193D01*
G37*
G36*
X149691043Y-75851619D02*
G01*
X149757227Y-75858137D01*
X149927066Y-75909657D01*
X150083591Y-75993322D01*
X150119329Y-76022652D01*
X150220786Y-76105914D01*
X150297573Y-76199481D01*
X150333378Y-76243109D01*
X150417043Y-76399634D01*
X150468563Y-76569473D01*
X150485959Y-76746100D01*
X150468563Y-76922727D01*
X150417043Y-77092566D01*
X150333378Y-77249091D01*
X150313863Y-77272870D01*
X150220786Y-77386286D01*
X150119329Y-77469548D01*
X150083591Y-77498878D01*
X149927066Y-77582543D01*
X149757227Y-77634063D01*
X149691042Y-77640582D01*
X149624860Y-77647100D01*
X149536340Y-77647100D01*
X149470158Y-77640582D01*
X149403973Y-77634063D01*
X149234134Y-77582543D01*
X149077609Y-77498878D01*
X149041871Y-77469548D01*
X148940414Y-77386286D01*
X148847337Y-77272870D01*
X148827822Y-77249091D01*
X148744157Y-77092566D01*
X148692637Y-76922727D01*
X148675241Y-76746100D01*
X148692637Y-76569473D01*
X148744157Y-76399634D01*
X148827822Y-76243109D01*
X148863627Y-76199481D01*
X148940414Y-76105914D01*
X149041871Y-76022652D01*
X149077609Y-75993322D01*
X149234134Y-75909657D01*
X149403973Y-75858137D01*
X149470157Y-75851619D01*
X149536340Y-75845100D01*
X149624860Y-75845100D01*
X149691043Y-75851619D01*
X149691043Y-75851619D01*
G37*
G36*
X140833000Y-76458900D02*
G01*
X137581000Y-76458900D01*
X137581000Y-75356900D01*
X140833000Y-75356900D01*
X140833000Y-76458900D01*
X140833000Y-76458900D01*
G37*
G36*
X145883000Y-76458900D02*
G01*
X142631000Y-76458900D01*
X142631000Y-75356900D01*
X145883000Y-75356900D01*
X145883000Y-76458900D01*
X145883000Y-76458900D01*
G37*
G36*
X131358800Y-76433500D02*
G01*
X128106800Y-76433500D01*
X128106800Y-75331500D01*
X131358800Y-75331500D01*
X131358800Y-76433500D01*
X131358800Y-76433500D01*
G37*
G36*
X136408800Y-76433500D02*
G01*
X133156800Y-76433500D01*
X133156800Y-75331500D01*
X136408800Y-75331500D01*
X136408800Y-76433500D01*
X136408800Y-76433500D01*
G37*
G36*
X124782542Y-74827881D02*
G01*
X124928314Y-74888262D01*
X124928316Y-74888263D01*
X125059508Y-74975922D01*
X125171078Y-75087492D01*
X125258737Y-75218684D01*
X125258738Y-75218686D01*
X125319119Y-75364458D01*
X125349900Y-75519207D01*
X125349900Y-75676993D01*
X125319119Y-75831742D01*
X125294068Y-75892220D01*
X125258737Y-75977516D01*
X125171078Y-76108708D01*
X125059508Y-76220278D01*
X124928316Y-76307937D01*
X124928315Y-76307938D01*
X124928314Y-76307938D01*
X124782542Y-76368319D01*
X124627793Y-76399100D01*
X124470007Y-76399100D01*
X124315258Y-76368319D01*
X124169486Y-76307938D01*
X124169485Y-76307938D01*
X124169484Y-76307937D01*
X124038292Y-76220278D01*
X123926722Y-76108708D01*
X123839063Y-75977516D01*
X123803732Y-75892220D01*
X123778681Y-75831742D01*
X123747900Y-75676993D01*
X123747900Y-75519207D01*
X123778681Y-75364458D01*
X123839062Y-75218686D01*
X123839063Y-75218684D01*
X123926722Y-75087492D01*
X124038292Y-74975922D01*
X124169484Y-74888263D01*
X124169486Y-74888262D01*
X124315258Y-74827881D01*
X124470007Y-74797100D01*
X124627793Y-74797100D01*
X124782542Y-74827881D01*
X124782542Y-74827881D01*
G37*
G36*
X122242542Y-73557881D02*
G01*
X122388314Y-73618262D01*
X122388316Y-73618263D01*
X122519508Y-73705922D01*
X122631078Y-73817492D01*
X122698836Y-73918900D01*
X122718738Y-73948686D01*
X122779119Y-74094458D01*
X122809900Y-74249207D01*
X122809900Y-74406993D01*
X122779119Y-74561742D01*
X122718738Y-74707514D01*
X122718737Y-74707516D01*
X122631078Y-74838708D01*
X122519508Y-74950278D01*
X122388316Y-75037937D01*
X122388315Y-75037938D01*
X122388314Y-75037938D01*
X122242542Y-75098319D01*
X122087793Y-75129100D01*
X121930007Y-75129100D01*
X121775258Y-75098319D01*
X121629486Y-75037938D01*
X121629485Y-75037938D01*
X121629484Y-75037937D01*
X121498292Y-74950278D01*
X121386722Y-74838708D01*
X121299063Y-74707516D01*
X121299062Y-74707514D01*
X121238681Y-74561742D01*
X121207900Y-74406993D01*
X121207900Y-74249207D01*
X121238681Y-74094458D01*
X121299062Y-73948686D01*
X121318964Y-73918900D01*
X121386722Y-73817492D01*
X121498292Y-73705922D01*
X121629484Y-73618263D01*
X121629486Y-73618262D01*
X121775258Y-73557881D01*
X121930007Y-73527100D01*
X122087793Y-73527100D01*
X122242542Y-73557881D01*
X122242542Y-73557881D01*
G37*
G36*
X150481600Y-75107100D02*
G01*
X148679600Y-75107100D01*
X148679600Y-73305100D01*
X150481600Y-73305100D01*
X150481600Y-75107100D01*
X150481600Y-75107100D01*
G37*
G36*
X145883000Y-73918900D02*
G01*
X142631000Y-73918900D01*
X142631000Y-72816900D01*
X145883000Y-72816900D01*
X145883000Y-73918900D01*
X145883000Y-73918900D01*
G37*
G36*
X140833000Y-73918900D02*
G01*
X137581000Y-73918900D01*
X137581000Y-72816900D01*
X140833000Y-72816900D01*
X140833000Y-73918900D01*
X140833000Y-73918900D01*
G37*
G36*
X136408800Y-73893500D02*
G01*
X133156800Y-73893500D01*
X133156800Y-72791500D01*
X136408800Y-72791500D01*
X136408800Y-73893500D01*
X136408800Y-73893500D01*
G37*
G36*
X131358800Y-73893500D02*
G01*
X128106800Y-73893500D01*
X128106800Y-72791500D01*
X131358800Y-72791500D01*
X131358800Y-73893500D01*
X131358800Y-73893500D01*
G37*
G36*
X124782542Y-72287881D02*
G01*
X124928314Y-72348262D01*
X124928316Y-72348263D01*
X125059508Y-72435922D01*
X125171078Y-72547492D01*
X125178312Y-72558319D01*
X125258738Y-72678686D01*
X125319119Y-72824458D01*
X125349900Y-72979207D01*
X125349900Y-73136993D01*
X125319119Y-73291742D01*
X125258738Y-73437514D01*
X125258737Y-73437516D01*
X125171078Y-73568708D01*
X125059508Y-73680278D01*
X124928316Y-73767937D01*
X124928315Y-73767938D01*
X124928314Y-73767938D01*
X124782542Y-73828319D01*
X124627793Y-73859100D01*
X124470007Y-73859100D01*
X124315258Y-73828319D01*
X124169486Y-73767938D01*
X124169485Y-73767938D01*
X124169484Y-73767937D01*
X124038292Y-73680278D01*
X123926722Y-73568708D01*
X123839063Y-73437516D01*
X123839062Y-73437514D01*
X123778681Y-73291742D01*
X123747900Y-73136993D01*
X123747900Y-72979207D01*
X123778681Y-72824458D01*
X123839062Y-72678686D01*
X123919488Y-72558319D01*
X123926722Y-72547492D01*
X124038292Y-72435922D01*
X124169484Y-72348263D01*
X124169486Y-72348262D01*
X124315258Y-72287881D01*
X124470007Y-72257100D01*
X124627793Y-72257100D01*
X124782542Y-72287881D01*
X124782542Y-72287881D01*
G37*
G36*
X122242542Y-71017881D02*
G01*
X122388314Y-71078262D01*
X122388316Y-71078263D01*
X122519508Y-71165922D01*
X122631078Y-71277492D01*
X122698836Y-71378900D01*
X122718738Y-71408686D01*
X122779119Y-71554458D01*
X122809900Y-71709207D01*
X122809900Y-71866993D01*
X122779119Y-72021742D01*
X122718738Y-72167514D01*
X122718737Y-72167516D01*
X122631078Y-72298708D01*
X122519508Y-72410278D01*
X122388316Y-72497937D01*
X122388315Y-72497938D01*
X122388314Y-72497938D01*
X122242542Y-72558319D01*
X122087793Y-72589100D01*
X121930007Y-72589100D01*
X121775258Y-72558319D01*
X121629486Y-72497938D01*
X121629485Y-72497938D01*
X121629484Y-72497937D01*
X121498292Y-72410278D01*
X121386722Y-72298708D01*
X121299063Y-72167516D01*
X121299062Y-72167514D01*
X121238681Y-72021742D01*
X121207900Y-71866993D01*
X121207900Y-71709207D01*
X121238681Y-71554458D01*
X121299062Y-71408686D01*
X121318964Y-71378900D01*
X121386722Y-71277492D01*
X121498292Y-71165922D01*
X121629484Y-71078263D01*
X121629486Y-71078262D01*
X121775258Y-71017881D01*
X121930007Y-70987100D01*
X122087793Y-70987100D01*
X122242542Y-71017881D01*
X122242542Y-71017881D01*
G37*
G36*
X140833000Y-71378900D02*
G01*
X137581000Y-71378900D01*
X137581000Y-70276900D01*
X140833000Y-70276900D01*
X140833000Y-71378900D01*
X140833000Y-71378900D01*
G37*
G36*
X145883000Y-71378900D02*
G01*
X142631000Y-71378900D01*
X142631000Y-70276900D01*
X145883000Y-70276900D01*
X145883000Y-71378900D01*
X145883000Y-71378900D01*
G37*
G36*
X131358800Y-71353500D02*
G01*
X128106800Y-71353500D01*
X128106800Y-70251500D01*
X131358800Y-70251500D01*
X131358800Y-71353500D01*
X131358800Y-71353500D01*
G37*
G36*
X136408800Y-71353500D02*
G01*
X133156800Y-71353500D01*
X133156800Y-70251500D01*
X136408800Y-70251500D01*
X136408800Y-71353500D01*
X136408800Y-71353500D01*
G37*
G36*
X124782542Y-69747881D02*
G01*
X124928314Y-69808262D01*
X124928316Y-69808263D01*
X125059508Y-69895922D01*
X125171078Y-70007492D01*
X125178312Y-70018319D01*
X125258738Y-70138686D01*
X125319119Y-70284458D01*
X125349900Y-70439207D01*
X125349900Y-70596993D01*
X125319119Y-70751742D01*
X125258738Y-70897514D01*
X125258737Y-70897516D01*
X125171078Y-71028708D01*
X125059508Y-71140278D01*
X124928316Y-71227937D01*
X124928315Y-71227938D01*
X124928314Y-71227938D01*
X124782542Y-71288319D01*
X124627793Y-71319100D01*
X124470007Y-71319100D01*
X124315258Y-71288319D01*
X124169486Y-71227938D01*
X124169485Y-71227938D01*
X124169484Y-71227937D01*
X124038292Y-71140278D01*
X123926722Y-71028708D01*
X123839063Y-70897516D01*
X123839062Y-70897514D01*
X123778681Y-70751742D01*
X123747900Y-70596993D01*
X123747900Y-70439207D01*
X123778681Y-70284458D01*
X123839062Y-70138686D01*
X123919488Y-70018319D01*
X123926722Y-70007492D01*
X124038292Y-69895922D01*
X124169484Y-69808263D01*
X124169486Y-69808262D01*
X124315258Y-69747881D01*
X124470007Y-69717100D01*
X124627793Y-69717100D01*
X124782542Y-69747881D01*
X124782542Y-69747881D01*
G37*
G36*
X122242542Y-68477881D02*
G01*
X122388314Y-68538262D01*
X122388316Y-68538263D01*
X122519508Y-68625922D01*
X122631078Y-68737492D01*
X122698836Y-68838900D01*
X122718738Y-68868686D01*
X122779119Y-69014458D01*
X122809900Y-69169207D01*
X122809900Y-69326993D01*
X122779119Y-69481742D01*
X122718738Y-69627514D01*
X122718737Y-69627516D01*
X122631078Y-69758708D01*
X122519508Y-69870278D01*
X122388316Y-69957937D01*
X122388315Y-69957938D01*
X122388314Y-69957938D01*
X122242542Y-70018319D01*
X122087793Y-70049100D01*
X121930007Y-70049100D01*
X121775258Y-70018319D01*
X121629486Y-69957938D01*
X121629485Y-69957938D01*
X121629484Y-69957937D01*
X121498292Y-69870278D01*
X121386722Y-69758708D01*
X121299063Y-69627516D01*
X121299062Y-69627514D01*
X121238681Y-69481742D01*
X121207900Y-69326993D01*
X121207900Y-69169207D01*
X121238681Y-69014458D01*
X121299062Y-68868686D01*
X121318964Y-68838900D01*
X121386722Y-68737492D01*
X121498292Y-68625922D01*
X121629484Y-68538263D01*
X121629486Y-68538262D01*
X121775258Y-68477881D01*
X121930007Y-68447100D01*
X122087793Y-68447100D01*
X122242542Y-68477881D01*
X122242542Y-68477881D01*
G37*
G36*
X140833000Y-68838900D02*
G01*
X137581000Y-68838900D01*
X137581000Y-67736900D01*
X140833000Y-67736900D01*
X140833000Y-68838900D01*
X140833000Y-68838900D01*
G37*
G36*
X145883000Y-68838900D02*
G01*
X142631000Y-68838900D01*
X142631000Y-67736900D01*
X145883000Y-67736900D01*
X145883000Y-68838900D01*
X145883000Y-68838900D01*
G37*
G36*
X131358800Y-68813500D02*
G01*
X128106800Y-68813500D01*
X128106800Y-67711500D01*
X131358800Y-67711500D01*
X131358800Y-68813500D01*
X131358800Y-68813500D01*
G37*
G36*
X136408800Y-68813500D02*
G01*
X133156800Y-68813500D01*
X133156800Y-67711500D01*
X136408800Y-67711500D01*
X136408800Y-68813500D01*
X136408800Y-68813500D01*
G37*
G36*
X124782542Y-67207881D02*
G01*
X124928314Y-67268262D01*
X124928316Y-67268263D01*
X125059508Y-67355922D01*
X125171078Y-67467492D01*
X125198879Y-67509100D01*
X125258738Y-67598686D01*
X125319119Y-67744458D01*
X125349900Y-67899207D01*
X125349900Y-68056993D01*
X125319119Y-68211742D01*
X125258738Y-68357514D01*
X125258737Y-68357516D01*
X125171078Y-68488708D01*
X125059508Y-68600278D01*
X124928316Y-68687937D01*
X124928315Y-68687938D01*
X124928314Y-68687938D01*
X124782542Y-68748319D01*
X124627793Y-68779100D01*
X124470007Y-68779100D01*
X124315258Y-68748319D01*
X124169486Y-68687938D01*
X124169485Y-68687938D01*
X124169484Y-68687937D01*
X124038292Y-68600278D01*
X123926722Y-68488708D01*
X123839063Y-68357516D01*
X123839062Y-68357514D01*
X123778681Y-68211742D01*
X123747900Y-68056993D01*
X123747900Y-67899207D01*
X123778681Y-67744458D01*
X123839062Y-67598686D01*
X123898921Y-67509100D01*
X123926722Y-67467492D01*
X124038292Y-67355922D01*
X124169484Y-67268263D01*
X124169486Y-67268262D01*
X124315258Y-67207881D01*
X124470007Y-67177100D01*
X124627793Y-67177100D01*
X124782542Y-67207881D01*
X124782542Y-67207881D01*
G37*
G36*
X122809900Y-67509100D02*
G01*
X121207900Y-67509100D01*
X121207900Y-65907100D01*
X122809900Y-65907100D01*
X122809900Y-67509100D01*
X122809900Y-67509100D01*
G37*
G36*
X116206108Y-63414193D02*
G01*
X116547517Y-63555610D01*
X116547519Y-63555611D01*
X116854780Y-63760916D01*
X117116084Y-64022220D01*
X117321390Y-64329483D01*
X117462807Y-64670892D01*
X117534900Y-65033329D01*
X117534900Y-65402871D01*
X117462807Y-65765308D01*
X117321390Y-66106717D01*
X117321389Y-66106719D01*
X117116084Y-66413980D01*
X116854780Y-66675284D01*
X116547519Y-66880589D01*
X116547518Y-66880590D01*
X116547517Y-66880590D01*
X116206108Y-67022007D01*
X115843671Y-67094100D01*
X115474129Y-67094100D01*
X115111692Y-67022007D01*
X114770283Y-66880590D01*
X114770282Y-66880590D01*
X114770281Y-66880589D01*
X114463020Y-66675284D01*
X114201716Y-66413980D01*
X113996411Y-66106719D01*
X113996410Y-66106717D01*
X113854993Y-65765308D01*
X113782900Y-65402871D01*
X113782900Y-65033329D01*
X113854993Y-64670892D01*
X113996410Y-64329483D01*
X114201716Y-64022220D01*
X114463020Y-63760916D01*
X114770281Y-63555611D01*
X114770283Y-63555610D01*
X115111692Y-63414193D01*
X115474129Y-63342100D01*
X115843671Y-63342100D01*
X116206108Y-63414193D01*
X116206108Y-63414193D01*
G37*
G36*
X140833000Y-66298900D02*
G01*
X137581000Y-66298900D01*
X137581000Y-65196900D01*
X140833000Y-65196900D01*
X140833000Y-66298900D01*
X140833000Y-66298900D01*
G37*
G36*
X145883000Y-66298900D02*
G01*
X142631000Y-66298900D01*
X142631000Y-65196900D01*
X145883000Y-65196900D01*
X145883000Y-66298900D01*
X145883000Y-66298900D01*
G37*
G36*
X136408800Y-66273500D02*
G01*
X133156800Y-66273500D01*
X133156800Y-65171500D01*
X136408800Y-65171500D01*
X136408800Y-66273500D01*
X136408800Y-66273500D01*
G37*
G36*
X131358800Y-66273500D02*
G01*
X128106800Y-66273500D01*
X128106800Y-65171500D01*
X131358800Y-65171500D01*
X131358800Y-66273500D01*
X131358800Y-66273500D01*
G37*
M02*
