G04 #@! TF.GenerationSoftware,KiCad,Pcbnew,(5.1.4-0-10_14)*
G04 #@! TF.CreationDate,2019-11-29T21:54:42+03:00*
G04 #@! TF.ProjectId,VHClick-rev1,5648436c-6963-46b2-9d72-6576312e6b69,rev?*
G04 #@! TF.SameCoordinates,Original*
G04 #@! TF.FileFunction,Legend,Bot*
G04 #@! TF.FilePolarity,Positive*
%FSLAX46Y46*%
G04 Gerber Fmt 4.6, Leading zero omitted, Abs format (unit mm)*
G04 Created by KiCad (PCBNEW (5.1.4-0-10_14)) date 2019-11-29 21:54:42*
%MOMM*%
%LPD*%
G04 APERTURE LIST*
%ADD10C,0.120000*%
G04 APERTURE END LIST*
D10*
X135703100Y-82053700D02*
X141103100Y-82053700D01*
X135703100Y-78753700D02*
X141103100Y-78753700D01*
X135703100Y-82053700D02*
X135703100Y-78753700D01*
X135703100Y-85000100D02*
X135703100Y-81700100D01*
X135703100Y-81700100D02*
X141103100Y-81700100D01*
X135703100Y-85000100D02*
X141103100Y-85000100D01*
X135703100Y-87946500D02*
X141103100Y-87946500D01*
X135703100Y-84646500D02*
X141103100Y-84646500D01*
X135703100Y-87946500D02*
X135703100Y-84646500D01*
X135703100Y-90892900D02*
X135703100Y-87592900D01*
X135703100Y-87592900D02*
X141103100Y-87592900D01*
X135703100Y-90892900D02*
X141103100Y-90892900D01*
X135703100Y-93839300D02*
X141103100Y-93839300D01*
X135703100Y-90539300D02*
X141103100Y-90539300D01*
X135703100Y-93839300D02*
X135703100Y-90539300D01*
X126140000Y-82053700D02*
X126140000Y-78753700D01*
X126140000Y-78753700D02*
X131540000Y-78753700D01*
X126140000Y-82053700D02*
X131540000Y-82053700D01*
X126140000Y-85000100D02*
X131540000Y-85000100D01*
X126140000Y-81700100D02*
X131540000Y-81700100D01*
X126140000Y-85000100D02*
X126140000Y-81700100D01*
X126140000Y-87946500D02*
X126140000Y-84646500D01*
X126140000Y-84646500D02*
X131540000Y-84646500D01*
X126140000Y-87946500D02*
X131540000Y-87946500D01*
X126140000Y-90892900D02*
X131540000Y-90892900D01*
X126140000Y-87592900D02*
X131540000Y-87592900D01*
X126140000Y-90892900D02*
X126140000Y-87592900D01*
X126140000Y-93839300D02*
X126140000Y-90539300D01*
X126140000Y-90539300D02*
X131540000Y-90539300D01*
X126140000Y-93839300D02*
X131540000Y-93839300D01*
X126140000Y-67321700D02*
X131540000Y-67321700D01*
X126140000Y-64021700D02*
X131540000Y-64021700D01*
X126140000Y-67321700D02*
X126140000Y-64021700D01*
X126140000Y-70268100D02*
X126140000Y-66968100D01*
X126140000Y-66968100D02*
X131540000Y-66968100D01*
X126140000Y-70268100D02*
X131540000Y-70268100D01*
X126140000Y-73214500D02*
X131540000Y-73214500D01*
X126140000Y-69914500D02*
X131540000Y-69914500D01*
X126140000Y-73214500D02*
X126140000Y-69914500D01*
X126140000Y-76160900D02*
X126140000Y-72860900D01*
X126140000Y-72860900D02*
X131540000Y-72860900D01*
X126140000Y-76160900D02*
X131540000Y-76160900D01*
X126140000Y-79107300D02*
X131540000Y-79107300D01*
X126140000Y-75807300D02*
X131540000Y-75807300D01*
X126140000Y-79107300D02*
X126140000Y-75807300D01*
X135703100Y-67321700D02*
X135703100Y-64021700D01*
X135703100Y-64021700D02*
X141103100Y-64021700D01*
X135703100Y-67321700D02*
X141103100Y-67321700D01*
X135703100Y-70268100D02*
X141103100Y-70268100D01*
X135703100Y-66968100D02*
X141103100Y-66968100D01*
X135703100Y-70268100D02*
X135703100Y-66968100D01*
X135703100Y-73214500D02*
X135703100Y-69914500D01*
X135703100Y-69914500D02*
X141103100Y-69914500D01*
X135703100Y-73214500D02*
X141103100Y-73214500D01*
X135703100Y-76160900D02*
X141103100Y-76160900D01*
X135703100Y-72860900D02*
X141103100Y-72860900D01*
X135703100Y-76160900D02*
X135703100Y-72860900D01*
X135703100Y-79107300D02*
X135703100Y-75807300D01*
X135703100Y-75807300D02*
X141103100Y-75807300D01*
X135703100Y-79107300D02*
X141103100Y-79107300D01*
M02*
