G04 #@! TF.GenerationSoftware,KiCad,Pcbnew,(5.1.4-0-10_14)*
G04 #@! TF.CreationDate,2019-11-29T21:54:42+03:00*
G04 #@! TF.ProjectId,VHClick-rev1,5648436c-6963-46b2-9d72-6576312e6b69,rev?*
G04 #@! TF.SameCoordinates,Original*
G04 #@! TF.FileFunction,Copper,L2,Bot*
G04 #@! TF.FilePolarity,Positive*
%FSLAX46Y46*%
G04 Gerber Fmt 4.6, Leading zero omitted, Abs format (unit mm)*
G04 Created by KiCad (PCBNEW (5.1.4-0-10_14)) date 2019-11-29 21:54:42*
%MOMM*%
%LPD*%
G04 APERTURE LIST*
%ADD10R,2.500000X1.800000*%
%ADD11C,1.500000*%
%ADD12R,1.500000X1.500000*%
%ADD13C,3.650000*%
%ADD14O,1.700000X1.700000*%
%ADD15R,1.700000X1.700000*%
%ADD16C,0.800000*%
%ADD17C,0.250000*%
G04 APERTURE END LIST*
D10*
X141103100Y-80403700D03*
X137103100Y-80403700D03*
X137103100Y-83350100D03*
X141103100Y-83350100D03*
X141103100Y-86296500D03*
X137103100Y-86296500D03*
X137103100Y-89242900D03*
X141103100Y-89242900D03*
X141103100Y-92189300D03*
X137103100Y-92189300D03*
X127540000Y-80403700D03*
X131540000Y-80403700D03*
X131540000Y-83350100D03*
X127540000Y-83350100D03*
X127540000Y-86296500D03*
X131540000Y-86296500D03*
X131540000Y-89242900D03*
X127540000Y-89242900D03*
X127540000Y-92189300D03*
X131540000Y-92189300D03*
X131540000Y-65671700D03*
X127540000Y-65671700D03*
X127540000Y-68618100D03*
X131540000Y-68618100D03*
X131540000Y-71564500D03*
X127540000Y-71564500D03*
X127540000Y-74510900D03*
X131540000Y-74510900D03*
X131540000Y-77457300D03*
X127540000Y-77457300D03*
X137103100Y-65671700D03*
X141103100Y-65671700D03*
X141103100Y-68618100D03*
X137103100Y-68618100D03*
X137103100Y-71564500D03*
X141103100Y-71564500D03*
X141103100Y-74510900D03*
X137103100Y-74510900D03*
X137103100Y-77457300D03*
X141103100Y-77457300D03*
D11*
X124548900Y-75598100D03*
X122008900Y-74328100D03*
X124548900Y-73058100D03*
X122008900Y-71788100D03*
X124548900Y-70518100D03*
X122008900Y-69248100D03*
X124548900Y-67978100D03*
D12*
X122008900Y-66708100D03*
D13*
X115658900Y-65218100D03*
X115658900Y-77088100D03*
X115671600Y-93311000D03*
X115671600Y-81441000D03*
D12*
X122021600Y-82931000D03*
D11*
X124561600Y-84201000D03*
X122021600Y-85471000D03*
X124561600Y-86741000D03*
X122021600Y-88011000D03*
X124561600Y-89281000D03*
X122021600Y-90551000D03*
X124561600Y-91821000D03*
D14*
X149580600Y-84366100D03*
X149580600Y-81826100D03*
X149580600Y-79286100D03*
X149580600Y-76746100D03*
D15*
X149580600Y-74206100D03*
D16*
X143002000Y-80759300D03*
X142989300Y-83324700D03*
X142989300Y-85877400D03*
X142989300Y-88430100D03*
X143002000Y-90982800D03*
X133438900Y-80759300D03*
X133438900Y-83312000D03*
X133413500Y-85877400D03*
X133400800Y-88442800D03*
X133413500Y-90982800D03*
X133413500Y-67043300D03*
X133400800Y-69583300D03*
X133413500Y-72110600D03*
X133413500Y-74637900D03*
X133413500Y-77165200D03*
X142951200Y-67056000D03*
X142951200Y-69583300D03*
X142976600Y-72097900D03*
X142989300Y-74637900D03*
X142963900Y-77165200D03*
D17*
X143002000Y-80759300D02*
X141103100Y-80759300D01*
X141458700Y-80759300D02*
X141103100Y-80403700D01*
X143002000Y-80759300D02*
X141458700Y-80759300D01*
X127890000Y-80759300D02*
X127540000Y-80759300D01*
X127890000Y-65671700D02*
X127540000Y-65671700D01*
X129115001Y-64446699D02*
X127890000Y-65671700D01*
X135603100Y-65671700D02*
X134378099Y-64446699D01*
X134378099Y-64446699D02*
X129115001Y-64446699D01*
X137103100Y-65671700D02*
X135603100Y-65671700D01*
X122008900Y-65708100D02*
X122008900Y-66708100D01*
X122045300Y-65671700D02*
X122008900Y-65708100D01*
X127540000Y-65671700D02*
X122045300Y-65671700D01*
X127890000Y-80403700D02*
X127540000Y-80403700D01*
X129115001Y-79178699D02*
X127890000Y-80403700D01*
X134378099Y-79178699D02*
X129115001Y-79178699D01*
X135603100Y-80403700D02*
X134378099Y-79178699D01*
X137103100Y-80403700D02*
X135603100Y-80403700D01*
X122021600Y-81931000D02*
X122021600Y-82931000D01*
X123548900Y-80403700D02*
X122021600Y-81931000D01*
X127540000Y-80403700D02*
X123548900Y-80403700D01*
X127890000Y-83315175D02*
X127540000Y-83315175D01*
X129580201Y-70308301D02*
X127890000Y-68618100D01*
X127890000Y-68618100D02*
X127540000Y-68618100D01*
X133748801Y-70308301D02*
X129580201Y-70308301D01*
X135439002Y-68618100D02*
X133748801Y-70308301D01*
X137103100Y-68618100D02*
X135439002Y-68618100D01*
X125188900Y-68618100D02*
X124548900Y-67978100D01*
X127540000Y-68618100D02*
X125188900Y-68618100D01*
X127890000Y-83350100D02*
X127540000Y-83350100D01*
X129115001Y-82125099D02*
X127890000Y-83350100D01*
X134378099Y-82125099D02*
X129115001Y-82125099D01*
X135603100Y-83350100D02*
X134378099Y-82125099D01*
X137103100Y-83350100D02*
X135603100Y-83350100D01*
X125412500Y-83350100D02*
X124561600Y-84201000D01*
X127540000Y-83350100D02*
X125412500Y-83350100D01*
X141112625Y-83324700D02*
X141103100Y-83315175D01*
X142989300Y-83324700D02*
X141112625Y-83324700D01*
X141128500Y-83324700D02*
X141103100Y-83350100D01*
X142989300Y-83324700D02*
X141128500Y-83324700D01*
X141109450Y-85877400D02*
X141103100Y-85871050D01*
X142989300Y-85877400D02*
X141109450Y-85877400D01*
X141522200Y-85877400D02*
X141103100Y-86296500D01*
X142989300Y-85877400D02*
X141522200Y-85877400D01*
X127890000Y-85871050D02*
X127540000Y-85871050D01*
X127890000Y-72110600D02*
X127540000Y-72110600D01*
X127540000Y-72110600D02*
X127190000Y-72110600D01*
X127890000Y-71564500D02*
X127540000Y-71564500D01*
X129161101Y-72835601D02*
X127890000Y-71564500D01*
X134331999Y-72835601D02*
X129161101Y-72835601D01*
X135603100Y-71564500D02*
X134331999Y-72835601D01*
X137103100Y-71564500D02*
X135603100Y-71564500D01*
X123069560Y-69248100D02*
X122008900Y-69248100D01*
X124873600Y-69248100D02*
X123069560Y-69248100D01*
X127190000Y-71564500D02*
X124873600Y-69248100D01*
X127540000Y-71564500D02*
X127190000Y-71564500D01*
X127890000Y-86296500D02*
X127540000Y-86296500D01*
X133680601Y-85071499D02*
X129115001Y-85071499D01*
X134905602Y-86296500D02*
X133680601Y-85071499D01*
X129115001Y-85071499D02*
X127890000Y-86296500D01*
X137103100Y-86296500D02*
X134905602Y-86296500D01*
X123082260Y-85471000D02*
X122021600Y-85471000D01*
X125145800Y-85471000D02*
X123082260Y-85471000D01*
X125971300Y-86296500D02*
X125145800Y-85471000D01*
X127540000Y-86296500D02*
X125971300Y-86296500D01*
X127540000Y-88426925D02*
X126247525Y-88426925D01*
X127890000Y-88426925D02*
X127540000Y-88426925D01*
X127890000Y-74637900D02*
X127540000Y-74637900D01*
X127540000Y-74637900D02*
X127190000Y-74637900D01*
X134378099Y-73285899D02*
X129115001Y-73285899D01*
X129115001Y-73285899D02*
X127890000Y-74510900D01*
X135603100Y-74510900D02*
X134378099Y-73285899D01*
X127890000Y-74510900D02*
X127540000Y-74510900D01*
X137103100Y-74510900D02*
X135603100Y-74510900D01*
X125964999Y-71934199D02*
X125298899Y-71268099D01*
X125298899Y-71268099D02*
X124548900Y-70518100D01*
X125964999Y-73285899D02*
X125964999Y-71934199D01*
X127190000Y-74510900D02*
X125964999Y-73285899D01*
X127540000Y-74510900D02*
X127190000Y-74510900D01*
X135227999Y-87717799D02*
X129415101Y-87717799D01*
X127890000Y-89242900D02*
X127540000Y-89242900D01*
X136753100Y-89242900D02*
X135227999Y-87717799D01*
X129415101Y-87717799D02*
X127890000Y-89242900D01*
X137103100Y-89242900D02*
X136753100Y-89242900D01*
X124688100Y-86741000D02*
X124561600Y-86741000D01*
X127190000Y-89242900D02*
X124688100Y-86741000D01*
X127540000Y-89242900D02*
X127190000Y-89242900D01*
X141106275Y-88430100D02*
X141103100Y-88426925D01*
X141915900Y-88430100D02*
X141103100Y-89242900D01*
X142989300Y-88430100D02*
X141915900Y-88430100D01*
X143002000Y-91790400D02*
X143002000Y-90982800D01*
X142603100Y-92189300D02*
X143002000Y-91790400D01*
X141103100Y-92189300D02*
X142603100Y-92189300D01*
X127890000Y-77165200D02*
X127540000Y-77165200D01*
X127540000Y-77165200D02*
X127190000Y-77165200D01*
X127890000Y-77457300D02*
X127540000Y-77457300D01*
X135603100Y-77457300D02*
X134378099Y-76232299D01*
X129115001Y-76232299D02*
X127890000Y-77457300D01*
X134378099Y-76232299D02*
X129115001Y-76232299D01*
X137103100Y-77457300D02*
X135603100Y-77457300D01*
X122758899Y-72538099D02*
X122008900Y-71788100D01*
X125623901Y-75082099D02*
X124674903Y-74133101D01*
X122758899Y-72859101D02*
X122758899Y-72538099D01*
X124674903Y-74133101D02*
X124032899Y-74133101D01*
X125623901Y-75891201D02*
X125623901Y-75082099D01*
X124032899Y-74133101D02*
X122758899Y-72859101D01*
X127190000Y-77457300D02*
X125623901Y-75891201D01*
X127540000Y-77457300D02*
X127190000Y-77457300D01*
X127890000Y-92189300D02*
X127540000Y-92189300D01*
X129115001Y-93414301D02*
X127890000Y-92189300D01*
X133725629Y-93414301D02*
X129115001Y-93414301D01*
X134950630Y-92189300D02*
X133725629Y-93414301D01*
X137103100Y-92189300D02*
X134950630Y-92189300D01*
X122771599Y-88760999D02*
X122021600Y-88011000D01*
X124045599Y-90356001D02*
X122771599Y-89082001D01*
X122771599Y-89082001D02*
X122771599Y-88760999D01*
X125356701Y-90356001D02*
X124045599Y-90356001D01*
X127190000Y-92189300D02*
X125356701Y-90356001D01*
X127540000Y-92189300D02*
X127190000Y-92189300D01*
X131540000Y-80759300D02*
X133438900Y-80759300D01*
X133435725Y-83315175D02*
X133438900Y-83312000D01*
X131540000Y-83315175D02*
X133435725Y-83315175D01*
X133407150Y-85871050D02*
X133413500Y-85877400D01*
X131540000Y-85871050D02*
X133407150Y-85871050D01*
X133384925Y-88426925D02*
X133400800Y-88442800D01*
X133040000Y-89242900D02*
X131540000Y-89242900D01*
X133400800Y-88882100D02*
X133040000Y-89242900D01*
X133400800Y-88442800D02*
X133400800Y-88882100D01*
X133413500Y-91815800D02*
X133040000Y-92189300D01*
X133040000Y-92189300D02*
X131540000Y-92189300D01*
X133413500Y-90982800D02*
X133413500Y-91815800D01*
X133400800Y-67056000D02*
X133413500Y-67043300D01*
X133040000Y-65671700D02*
X131540000Y-65671700D01*
X133413500Y-66045200D02*
X133040000Y-65671700D01*
X133413500Y-67043300D02*
X133413500Y-66045200D01*
X133400800Y-68978900D02*
X133040000Y-68618100D01*
X133040000Y-68618100D02*
X131540000Y-68618100D01*
X133400800Y-69583300D02*
X133400800Y-68978900D01*
X131540000Y-72110600D02*
X133413500Y-72110600D01*
X131540000Y-74637900D02*
X133413500Y-74637900D01*
X133413500Y-77165200D02*
X131540000Y-77165200D01*
X142487400Y-67056000D02*
X141103100Y-65671700D01*
X142951200Y-67056000D02*
X142487400Y-67056000D01*
X142068300Y-69583300D02*
X141103100Y-68618100D01*
X142951200Y-69583300D02*
X142068300Y-69583300D01*
X142963900Y-72110600D02*
X142976600Y-72097900D01*
X141103100Y-72110600D02*
X142963900Y-72110600D01*
X141636500Y-72097900D02*
X141103100Y-71564500D01*
X142976600Y-72097900D02*
X141636500Y-72097900D01*
X141103100Y-74637900D02*
X142989300Y-74637900D01*
X141230100Y-74637900D02*
X141103100Y-74510900D01*
X142989300Y-74637900D02*
X141230100Y-74637900D01*
X141103100Y-77165200D02*
X142963900Y-77165200D01*
M02*
